<svg width="30" height="25" viewBox="0 0 30 25" fill="none" xmlns="http://www.w3.org/2000/svg">
<path fill-rule="evenodd" clip-rule="evenodd" d="M7.11628 1.66667C7.5062 1.14918 8.0118 0.729169 8.59306 0.439887C9.17431 0.150604 9.81525 0 10.4651 0H25.814C26.9242 0 27.9889 0.438987 28.7739 1.22039C29.559 2.00179 30 3.0616 30 4.16667V20.8333C30 21.9384 29.559 22.9982 28.7739 23.7796C27.9889 24.561 26.9242 25 25.814 25H10.4651C9.81525 25 9.17431 24.8494 8.59306 24.5601C8.0118 24.2708 7.5062 23.8508 7.11628 23.3333L0.837209 15C0.293768 14.2788 0 13.4015 0 12.5C0 11.5985 0.293768 10.7212 0.837209 10L7.11628 1.66667V1.66667ZM22.6144 9.31528C22.8686 9.05333 23.0092 8.70249 23.0061 8.33833C23.0029 7.97417 22.8561 7.62582 22.5974 7.36831C22.3387 7.1108 21.9887 6.96473 21.6229 6.96156C21.257 6.9584 20.9046 7.09839 20.6414 7.35139L17.4419 10.5361L14.2423 7.35139C14.1136 7.21874 13.9596 7.11293 13.7894 7.04014C13.6192 6.96735 13.4361 6.92903 13.2508 6.92743C13.0655 6.92583 12.8818 6.96097 12.7103 7.0308C12.5388 7.10064 12.383 7.20377 12.252 7.33417C12.121 7.46458 12.0174 7.61965 11.9472 7.79034C11.8771 7.96103 11.8418 8.14392 11.8434 8.32833C11.845 8.51275 11.8835 8.695 11.9566 8.86445C12.0297 9.0339 12.136 9.18716 12.2693 9.31528L15.4688 12.5L12.2693 15.6847C12.0151 15.9467 11.8745 16.2975 11.8777 16.6617C11.8808 17.0258 12.0276 17.3742 12.2863 17.6317C12.545 17.8892 12.895 18.0353 13.2608 18.0384C13.6267 18.0416 13.9792 17.9016 14.2423 17.6486L17.4419 14.4639L20.6414 17.6486C20.9046 17.9016 21.257 18.0416 21.6229 18.0384C21.9887 18.0353 22.3387 17.8892 22.5974 17.6317C22.8561 17.3742 23.0029 17.0258 23.0061 16.6617C23.0092 16.2975 22.8686 15.9467 22.6144 15.6847L19.4149 12.5L22.6144 9.31528Z" fill="white"/>
</svg>
